<svg viewBox="-92 -64 844 219" width="844" xmlns="http://www.w3.org/2000/svg">
  <metadata id="sdlc">{"type": "lineage", "owner": "maintainer", "sources": ["../skills/sdlc/references/continuous-work.md", "../workflow/registry.json"]}</metadata>
  <style>
    text { font-family: 'PingFang SC', 'Microsoft YaHei', 'Noto Sans CJK SC', system-ui, sans-serif; }
  </style>
  <defs>
    <marker id="arrow" markerWidth="8" markerHeight="8" refX="2" refY="4" orient="auto" markerUnits="userSpaceOnUse">
      <path d="M0,0 L8,4 L0,8 L2,4 z" fill="#64748b"/>
    </marker>
  </defs>
  <rect x="-92" y="-64" width="844" height="219" fill="#ffffff"/>
  <text x="330" y="-30" font-size="16" fill="#1e293b" text-anchor="middle">边补数据边分析：两条线互不等待</text>
  <path d="M75,27 L 84,27" fill="none" stroke="#64748b" stroke-width="1.5" marker-end="url(#arrow)"/>
  <path d="M240,27 L 249,27" fill="none" stroke="#64748b" stroke-width="1.5" marker-end="url(#arrow)"/>
  <path d="M405,27 L 414,27" fill="none" stroke="#64748b" stroke-width="1.5" marker-end="url(#arrow)"/>
  <path d="M570,27 L 579,27" fill="none" stroke="#64748b" stroke-width="1.5" marker-end="url(#arrow)"/>
  <path d="M75,106 L 84,106" fill="none" stroke="#64748b" stroke-width="1.5" marker-end="url(#arrow)"/>
  <path d="M240,106 L 249,106" fill="none" stroke="#64748b" stroke-width="1.5" marker-end="url(#arrow)"/>
  <path d="M405,106 L 414,106" fill="none" stroke="#64748b" stroke-width="1.5" marker-end="url(#arrow)"/>
  <!-- box x=-70..70, y=0..54 -->
  <rect x="-70" y="0" width="140" height="54" rx="6" fill="#dbeafe" stroke="#3b82f6" stroke-width="1.5"/>
  <text x="0" y="22.2" font-size="12" fill="#1e40af" text-anchor="middle">补数线</text>
  <text x="0" y="40.2" font-size="12" fill="#1e40af" text-anchor="middle">后台长作业</text>
  <!-- box x=95..235, y=0..54 -->
  <rect x="95" y="0" width="140" height="54" rx="6" fill="#f3e8ff" stroke="#a855f7" stroke-width="1.5" data-sdlc-id="job-start"/>
  <text x="165" y="22.2" font-size="12" fill="#6b21a8" text-anchor="middle">job-start</text>
  <text x="165" y="40.2" font-size="12" fill="#6b21a8" text-anchor="middle">只提交一次</text>
  <!-- box x=260..400, y=0..54 -->
  <rect x="260" y="0" width="140" height="54" rx="6" fill="#f3e8ff" stroke="#a855f7" stroke-width="1.5" data-sdlc-id="job-status"/>
  <text x="330" y="22.2" font-size="12" fill="#6b21a8" text-anchor="middle">job-status</text>
  <text x="330" y="40.2" font-size="12" fill="#6b21a8" text-anchor="middle">轮询到真正完成</text>
  <!-- box x=425..565, y=0..54 -->
  <rect x="425" y="0" width="140" height="54" rx="6" fill="#d1fae5" stroke="#22c55e" stroke-width="1.5" data-sdlc-id="dataset-capture"/>
  <text x="495" y="22.2" font-size="12" fill="#166534" text-anchor="middle">dataset-capture</text>
  <text x="495" y="40.2" font-size="12" fill="#166534" text-anchor="middle">冻结新快照 D21</text>
  <!-- box x=590..730, y=0..54 -->
  <rect x="590" y="0" width="140" height="54" rx="6" fill="#fef3c7" stroke="#f59e0b" stroke-width="1.5" data-sdlc-id="analyze"/>
  <text x="660" y="22.2" font-size="12" fill="#b45309" text-anchor="middle">analyze 第二版</text>
  <text x="660" y="40.2" font-size="12" fill="#b45309" text-anchor="middle">基于 D21 另起一版</text>
  <!-- box x=-70..70, y=79..133 -->
  <rect x="-70" y="79" width="140" height="54" rx="6" fill="#dbeafe" stroke="#3b82f6" stroke-width="1.5"/>
  <text x="0" y="101.2" font-size="12" fill="#1e40af" text-anchor="middle">分析线</text>
  <text x="0" y="119.2" font-size="12" fill="#1e40af" text-anchor="middle">不等补数完成</text>
  <!-- box x=95..235, y=79..133 -->
  <rect x="95" y="79" width="140" height="54" rx="6" fill="#d1fae5" stroke="#22c55e" stroke-width="1.5"/>
  <text x="165" y="101.2" font-size="12" fill="#166534" text-anchor="middle">D20 快照</text>
  <text x="165" y="119.2" font-size="12" fill="#166534" text-anchor="middle">已冻结的完整窗口</text>
  <!-- box x=260..400, y=79..133 -->
  <rect x="260" y="79" width="140" height="54" rx="6" fill="#fef3c7" stroke="#f59e0b" stroke-width="1.5" data-sdlc-id="analyze"/>
  <text x="330" y="101.2" font-size="12" fill="#b45309" text-anchor="middle">analyze</text>
  <text x="330" y="119.2" font-size="12" fill="#b45309" text-anchor="middle">只在 D20 上计算</text>
  <!-- box x=425..565, y=79..133 -->
  <rect x="425" y="79" width="140" height="54" rx="6" fill="#d1fae5" stroke="#22c55e" stroke-width="1.5"/>
  <text x="495" y="101.2" font-size="12" fill="#166534" text-anchor="middle">结论</text>
  <text x="495" y="119.2" font-size="12" fill="#166534" text-anchor="middle">注明数据窗口与局限</text>
</svg>
